<mxfile host="app.diagrams.net" agent="Mozilla/5.0 (Windows NT 10.0; Win64; x64) AppleWebKit/537.36 (KHTML, like Gecko) Chrome/122.0.0.0 Safari/537.36" version="28.1.1">
  <diagram name="‫עמוד-1‬" id="a0sxusuZwEAnrO92uEmm">
    <mxGraphModel dx="1546" dy="388" grid="1" gridSize="10" guides="1" tooltips="1" connect="1" arrows="1" fold="1" page="1" pageScale="1" pageWidth="827" pageHeight="1169" math="0" shadow="0">
      <root>
        <mxCell id="0" />
        <mxCell id="1" parent="0" />
        <mxCell id="4_KPcj4YJHk1wF-UFKJq-1" value="" style="edgeStyle=orthogonalEdgeStyle;rounded=0;orthogonalLoop=1;jettySize=auto;html=1;" parent="1" edge="1">
          <mxGeometry relative="1" as="geometry">
            <mxPoint x="-10" y="480" as="sourcePoint" />
          </mxGeometry>
        </mxCell>
        <mxCell id="4_KPcj4YJHk1wF-UFKJq-140" value="" style="edgeStyle=orthogonalEdgeStyle;rounded=0;orthogonalLoop=1;jettySize=auto;html=1;" parent="1" edge="1">
          <mxGeometry relative="1" as="geometry">
            <mxPoint x="-70" y="2460" as="sourcePoint" />
          </mxGeometry>
        </mxCell>
        <mxCell id="6-pD-SDjTyEoyMlk92ho-1" value="" style="edgeStyle=orthogonalEdgeStyle;rounded=0;orthogonalLoop=1;jettySize=auto;html=1;" parent="1" edge="1">
          <mxGeometry relative="1" as="geometry">
            <mxPoint x="470" y="540" as="sourcePoint" />
          </mxGeometry>
        </mxCell>
        <mxCell id="6-pD-SDjTyEoyMlk92ho-140" value="" style="edgeStyle=orthogonalEdgeStyle;rounded=0;orthogonalLoop=1;jettySize=auto;html=1;" parent="1" edge="1">
          <mxGeometry relative="1" as="geometry">
            <mxPoint x="410" y="2520" as="sourcePoint" />
          </mxGeometry>
        </mxCell>
        <mxCell id="sLQLiBAyIfBGB4FIWRoG-1" value="human" style="rounded=1;arcSize=10;whiteSpace=wrap;html=1;align=center;" vertex="1" parent="1">
          <mxGeometry x="255" y="820" width="100" height="40" as="geometry" />
        </mxCell>
        <mxCell id="sLQLiBAyIfBGB4FIWRoG-2" value="manager" style="rounded=1;arcSize=10;whiteSpace=wrap;html=1;align=center;" vertex="1" parent="1">
          <mxGeometry x="65" y="1010" width="100" height="40" as="geometry" />
        </mxCell>
        <mxCell id="sLQLiBAyIfBGB4FIWRoG-3" value="first_name" style="ellipse;whiteSpace=wrap;html=1;align=center;" vertex="1" parent="1">
          <mxGeometry x="165" y="750" width="80" height="40" as="geometry" />
        </mxCell>
        <mxCell id="sLQLiBAyIfBGB4FIWRoG-4" value="last_name" style="ellipse;whiteSpace=wrap;html=1;align=center;" vertex="1" parent="1">
          <mxGeometry x="215" y="710" width="80" height="40" as="geometry" />
        </mxCell>
        <mxCell id="sLQLiBAyIfBGB4FIWRoG-5" value="phone" style="ellipse;whiteSpace=wrap;html=1;align=center;" vertex="1" parent="1">
          <mxGeometry x="315" y="710" width="80" height="40" as="geometry" />
        </mxCell>
        <mxCell id="sLQLiBAyIfBGB4FIWRoG-6" value="email" style="ellipse;whiteSpace=wrap;html=1;align=center;" vertex="1" parent="1">
          <mxGeometry x="355" y="750" width="80" height="40" as="geometry" />
        </mxCell>
        <mxCell id="sLQLiBAyIfBGB4FIWRoG-7" value="" style="endArrow=none;html=1;rounded=0;entryX=0.5;entryY=1;entryDx=0;entryDy=0;exitX=0.5;exitY=0;exitDx=0;exitDy=0;" edge="1" parent="1" source="sLQLiBAyIfBGB4FIWRoG-1" target="sLQLiBAyIfBGB4FIWRoG-3">
          <mxGeometry relative="1" as="geometry">
            <mxPoint x="85" y="840" as="sourcePoint" />
            <mxPoint x="245" y="840" as="targetPoint" />
          </mxGeometry>
        </mxCell>
        <mxCell id="sLQLiBAyIfBGB4FIWRoG-8" value="" style="endArrow=none;html=1;rounded=0;entryX=0.5;entryY=1;entryDx=0;entryDy=0;exitX=0.5;exitY=0;exitDx=0;exitDy=0;" edge="1" parent="1" source="sLQLiBAyIfBGB4FIWRoG-1" target="sLQLiBAyIfBGB4FIWRoG-4">
          <mxGeometry relative="1" as="geometry">
            <mxPoint x="395" y="830" as="sourcePoint" />
            <mxPoint x="255" y="800" as="targetPoint" />
          </mxGeometry>
        </mxCell>
        <mxCell id="sLQLiBAyIfBGB4FIWRoG-9" value="" style="endArrow=none;html=1;rounded=0;entryX=0.5;entryY=1;entryDx=0;entryDy=0;exitX=0.5;exitY=0;exitDx=0;exitDy=0;" edge="1" parent="1" source="sLQLiBAyIfBGB4FIWRoG-1" target="sLQLiBAyIfBGB4FIWRoG-5">
          <mxGeometry relative="1" as="geometry">
            <mxPoint x="445" y="850" as="sourcePoint" />
            <mxPoint x="305" y="820" as="targetPoint" />
          </mxGeometry>
        </mxCell>
        <mxCell id="sLQLiBAyIfBGB4FIWRoG-10" value="" style="endArrow=none;html=1;rounded=0;entryX=0.5;entryY=1;entryDx=0;entryDy=0;exitX=0.5;exitY=0;exitDx=0;exitDy=0;" edge="1" parent="1" source="sLQLiBAyIfBGB4FIWRoG-1" target="sLQLiBAyIfBGB4FIWRoG-6">
          <mxGeometry relative="1" as="geometry">
            <mxPoint x="445" y="850" as="sourcePoint" />
            <mxPoint x="305" y="820" as="targetPoint" />
          </mxGeometry>
        </mxCell>
        <mxCell id="sLQLiBAyIfBGB4FIWRoG-11" value="ISA" style="triangle;whiteSpace=wrap;html=1;rotation=90;" vertex="1" parent="1">
          <mxGeometry x="275" y="900" width="60" height="80" as="geometry" />
        </mxCell>
        <mxCell id="sLQLiBAyIfBGB4FIWRoG-12" value="" style="endArrow=none;html=1;rounded=0;entryX=0.5;entryY=1;entryDx=0;entryDy=0;exitX=0;exitY=0.5;exitDx=0;exitDy=0;" edge="1" parent="1" source="sLQLiBAyIfBGB4FIWRoG-11" target="sLQLiBAyIfBGB4FIWRoG-1">
          <mxGeometry relative="1" as="geometry">
            <mxPoint x="375" y="860" as="sourcePoint" />
            <mxPoint x="465" y="830" as="targetPoint" />
          </mxGeometry>
        </mxCell>
        <mxCell id="sLQLiBAyIfBGB4FIWRoG-13" value="&lt;u&gt;human_id&lt;/u&gt;" style="ellipse;whiteSpace=wrap;html=1;align=center;" vertex="1" parent="1">
          <mxGeometry x="265" y="670" width="80" height="40" as="geometry" />
        </mxCell>
        <mxCell id="sLQLiBAyIfBGB4FIWRoG-14" value="" style="endArrow=none;html=1;rounded=0;entryX=0.5;entryY=1;entryDx=0;entryDy=0;exitX=0.5;exitY=0;exitDx=0;exitDy=0;" edge="1" parent="1" source="sLQLiBAyIfBGB4FIWRoG-1" target="sLQLiBAyIfBGB4FIWRoG-13">
          <mxGeometry relative="1" as="geometry">
            <mxPoint x="325" y="850" as="sourcePoint" />
            <mxPoint x="375" y="780" as="targetPoint" />
          </mxGeometry>
        </mxCell>
        <mxCell id="sLQLiBAyIfBGB4FIWRoG-15" value="" style="endArrow=none;html=1;rounded=0;entryX=0.5;entryY=1;entryDx=0;entryDy=0;exitX=0.5;exitY=0;exitDx=0;exitDy=0;" edge="1" parent="1" source="sLQLiBAyIfBGB4FIWRoG-2" target="sLQLiBAyIfBGB4FIWRoG-11">
          <mxGeometry relative="1" as="geometry">
            <mxPoint x="195" y="1030" as="sourcePoint" />
            <mxPoint x="245" y="960" as="targetPoint" />
          </mxGeometry>
        </mxCell>
        <mxCell id="sLQLiBAyIfBGB4FIWRoG-16" value="worker" style="rounded=1;arcSize=10;whiteSpace=wrap;html=1;align=center;" vertex="1" parent="1">
          <mxGeometry x="435" y="1010" width="100" height="40" as="geometry" />
        </mxCell>
        <mxCell id="sLQLiBAyIfBGB4FIWRoG-17" value="" style="endArrow=none;html=1;rounded=0;entryX=0.5;entryY=0;entryDx=0;entryDy=0;exitX=0.5;exitY=0;exitDx=0;exitDy=0;" edge="1" parent="1" source="sLQLiBAyIfBGB4FIWRoG-11" target="sLQLiBAyIfBGB4FIWRoG-16">
          <mxGeometry relative="1" as="geometry">
            <mxPoint x="215" y="1060" as="sourcePoint" />
            <mxPoint x="385" y="990" as="targetPoint" />
          </mxGeometry>
        </mxCell>
        <mxCell id="sLQLiBAyIfBGB4FIWRoG-18" value="manages" style="shape=rhombus;perimeter=rhombusPerimeter;whiteSpace=wrap;html=1;align=center;" vertex="1" parent="1">
          <mxGeometry x="250" y="1000" width="110" height="60" as="geometry" />
        </mxCell>
        <mxCell id="sLQLiBAyIfBGB4FIWRoG-19" value="" style="endArrow=none;html=1;rounded=0;entryX=1;entryY=0.5;entryDx=0;entryDy=0;exitX=0;exitY=0.5;exitDx=0;exitDy=0;" edge="1" parent="1" source="sLQLiBAyIfBGB4FIWRoG-18" target="sLQLiBAyIfBGB4FIWRoG-2">
          <mxGeometry relative="1" as="geometry">
            <mxPoint x="205" y="1050" as="sourcePoint" />
            <mxPoint x="375" y="980" as="targetPoint" />
          </mxGeometry>
        </mxCell>
        <mxCell id="sLQLiBAyIfBGB4FIWRoG-20" value="" style="endArrow=none;html=1;rounded=0;entryX=1;entryY=0.5;entryDx=0;entryDy=0;exitX=0;exitY=0.5;exitDx=0;exitDy=0;" edge="1" parent="1" source="sLQLiBAyIfBGB4FIWRoG-16" target="sLQLiBAyIfBGB4FIWRoG-18">
          <mxGeometry relative="1" as="geometry">
            <mxPoint x="420" y="1080" as="sourcePoint" />
            <mxPoint x="335" y="1080" as="targetPoint" />
          </mxGeometry>
        </mxCell>
        <mxCell id="sLQLiBAyIfBGB4FIWRoG-21" value="1" style="resizable=0;html=1;whiteSpace=wrap;align=right;verticalAlign=bottom;" connectable="0" vertex="1" parent="1">
          <mxGeometry x="185" y="1050" as="geometry" />
        </mxCell>
        <mxCell id="sLQLiBAyIfBGB4FIWRoG-22" value="N" style="resizable=0;html=1;whiteSpace=wrap;align=right;verticalAlign=bottom;" connectable="0" vertex="1" parent="1">
          <mxGeometry x="430" y="1050" as="geometry" />
        </mxCell>
        <mxCell id="sLQLiBAyIfBGB4FIWRoG-23" value="test" style="rounded=1;arcSize=10;whiteSpace=wrap;html=1;align=center;" vertex="1" parent="1">
          <mxGeometry x="255" y="1150" width="100" height="40" as="geometry" />
        </mxCell>
        <mxCell id="sLQLiBAyIfBGB4FIWRoG-24" value="start" style="shape=rhombus;perimeter=rhombusPerimeter;whiteSpace=wrap;html=1;align=center;" vertex="1" parent="1">
          <mxGeometry x="60" y="1080" width="110" height="60" as="geometry" />
        </mxCell>
        <mxCell id="sLQLiBAyIfBGB4FIWRoG-25" value="" style="endArrow=none;html=1;rounded=0;entryX=0.5;entryY=0;entryDx=0;entryDy=0;exitX=0.5;exitY=1;exitDx=0;exitDy=0;" edge="1" parent="1" source="sLQLiBAyIfBGB4FIWRoG-2" target="sLQLiBAyIfBGB4FIWRoG-24">
          <mxGeometry relative="1" as="geometry">
            <mxPoint x="215" y="1060" as="sourcePoint" />
            <mxPoint x="385" y="990" as="targetPoint" />
          </mxGeometry>
        </mxCell>
        <mxCell id="sLQLiBAyIfBGB4FIWRoG-26" value="" style="endArrow=none;html=1;rounded=0;entryX=0;entryY=0.5;entryDx=0;entryDy=0;exitX=0.5;exitY=1;exitDx=0;exitDy=0;" edge="1" parent="1" source="sLQLiBAyIfBGB4FIWRoG-24" target="sLQLiBAyIfBGB4FIWRoG-23">
          <mxGeometry relative="1" as="geometry">
            <mxPoint x="135" y="1120" as="sourcePoint" />
            <mxPoint x="135" y="1170" as="targetPoint" />
            <Array as="points">
              <mxPoint x="115" y="1170" />
            </Array>
          </mxGeometry>
        </mxCell>
        <mxCell id="sLQLiBAyIfBGB4FIWRoG-27" value="worker_test" style="shape=rhombus;perimeter=rhombusPerimeter;whiteSpace=wrap;html=1;align=center;" vertex="1" parent="1">
          <mxGeometry x="430" y="1080" width="110" height="60" as="geometry" />
        </mxCell>
        <mxCell id="sLQLiBAyIfBGB4FIWRoG-28" value="" style="endArrow=none;html=1;rounded=0;entryX=0.5;entryY=0;entryDx=0;entryDy=0;exitX=0.5;exitY=1;exitDx=0;exitDy=0;" edge="1" parent="1" source="sLQLiBAyIfBGB4FIWRoG-16" target="sLQLiBAyIfBGB4FIWRoG-27">
          <mxGeometry relative="1" as="geometry">
            <mxPoint x="195" y="1090" as="sourcePoint" />
            <mxPoint x="195" y="1120" as="targetPoint" />
          </mxGeometry>
        </mxCell>
        <mxCell id="sLQLiBAyIfBGB4FIWRoG-29" value="" style="endArrow=none;html=1;rounded=0;entryX=1;entryY=0.5;entryDx=0;entryDy=0;exitX=0.5;exitY=1;exitDx=0;exitDy=0;" edge="1" parent="1" source="sLQLiBAyIfBGB4FIWRoG-27" target="sLQLiBAyIfBGB4FIWRoG-23">
          <mxGeometry relative="1" as="geometry">
            <mxPoint x="455" y="1180" as="sourcePoint" />
            <mxPoint x="455" y="1210" as="targetPoint" />
            <Array as="points">
              <mxPoint x="485" y="1170" />
            </Array>
          </mxGeometry>
        </mxCell>
        <mxCell id="sLQLiBAyIfBGB4FIWRoG-30" value="&lt;u&gt;test_id&lt;/u&gt;" style="ellipse;whiteSpace=wrap;html=1;align=center;" vertex="1" parent="1">
          <mxGeometry x="215" y="1220" width="80" height="40" as="geometry" />
        </mxCell>
        <mxCell id="sLQLiBAyIfBGB4FIWRoG-31" value="N" style="resizable=0;html=1;whiteSpace=wrap;align=right;verticalAlign=bottom;" connectable="0" vertex="1" parent="1">
          <mxGeometry x="250" y="1170" as="geometry" />
        </mxCell>
        <mxCell id="sLQLiBAyIfBGB4FIWRoG-32" value="N" style="resizable=0;html=1;whiteSpace=wrap;align=right;verticalAlign=bottom;" connectable="0" vertex="1" parent="1">
          <mxGeometry x="485" y="1070" as="geometry" />
        </mxCell>
        <mxCell id="sLQLiBAyIfBGB4FIWRoG-33" value="1" style="resizable=0;html=1;whiteSpace=wrap;align=right;verticalAlign=bottom;" connectable="0" vertex="1" parent="1">
          <mxGeometry x="105" y="1070" as="geometry" />
        </mxCell>
        <mxCell id="sLQLiBAyIfBGB4FIWRoG-34" value="M" style="resizable=0;html=1;whiteSpace=wrap;align=right;verticalAlign=bottom;" connectable="0" vertex="1" parent="1">
          <mxGeometry x="469" y="1060" as="geometry">
            <mxPoint x="-97" y="105" as="offset" />
          </mxGeometry>
        </mxCell>
        <mxCell id="sLQLiBAyIfBGB4FIWRoG-35" value="start_date" style="ellipse;whiteSpace=wrap;html=1;align=center;" vertex="1" parent="1">
          <mxGeometry x="315" y="1220" width="80" height="40" as="geometry" />
        </mxCell>
        <mxCell id="sLQLiBAyIfBGB4FIWRoG-36" value="" style="endArrow=none;html=1;rounded=0;entryX=0.5;entryY=1;entryDx=0;entryDy=0;exitX=0.5;exitY=0;exitDx=0;exitDy=0;" edge="1" parent="1" source="sLQLiBAyIfBGB4FIWRoG-30" target="sLQLiBAyIfBGB4FIWRoG-23">
          <mxGeometry relative="1" as="geometry">
            <mxPoint x="235" y="1270" as="sourcePoint" />
            <mxPoint x="235" y="1220" as="targetPoint" />
          </mxGeometry>
        </mxCell>
        <mxCell id="sLQLiBAyIfBGB4FIWRoG-37" value="" style="endArrow=none;html=1;rounded=0;entryX=0.5;entryY=1;entryDx=0;entryDy=0;exitX=0.5;exitY=0;exitDx=0;exitDy=0;" edge="1" parent="1" source="sLQLiBAyIfBGB4FIWRoG-35" target="sLQLiBAyIfBGB4FIWRoG-23">
          <mxGeometry relative="1" as="geometry">
            <mxPoint x="305" y="1300" as="sourcePoint" />
            <mxPoint x="305" y="1250" as="targetPoint" />
          </mxGeometry>
        </mxCell>
        <mxCell id="sLQLiBAyIfBGB4FIWRoG-38" value="is_failed" style="ellipse;whiteSpace=wrap;html=1;align=center;" vertex="1" parent="1">
          <mxGeometry x="575" y="1090" width="80" height="40" as="geometry" />
        </mxCell>
        <mxCell id="sLQLiBAyIfBGB4FIWRoG-39" value="" style="endArrow=none;html=1;rounded=0;entryX=0;entryY=0.5;entryDx=0;entryDy=0;exitX=1;exitY=0.5;exitDx=0;exitDy=0;" edge="1" parent="1" source="sLQLiBAyIfBGB4FIWRoG-27" target="sLQLiBAyIfBGB4FIWRoG-38">
          <mxGeometry relative="1" as="geometry">
            <mxPoint x="505" y="1110" as="sourcePoint" />
            <mxPoint x="665" y="1180" as="targetPoint" />
          </mxGeometry>
        </mxCell>
        <mxCell id="sLQLiBAyIfBGB4FIWRoG-40" value="pass" style="ellipse;whiteSpace=wrap;html=1;align=center;" vertex="1" parent="1">
          <mxGeometry x="-60" y="1010" width="80" height="40" as="geometry" />
        </mxCell>
        <mxCell id="sLQLiBAyIfBGB4FIWRoG-42" value="" style="endArrow=none;html=1;rounded=0;entryX=0;entryY=0.5;entryDx=0;entryDy=0;exitX=1;exitY=0.5;exitDx=0;exitDy=0;" edge="1" parent="1" source="sLQLiBAyIfBGB4FIWRoG-40" target="sLQLiBAyIfBGB4FIWRoG-2">
          <mxGeometry width="50" height="50" relative="1" as="geometry">
            <mxPoint x="-30" y="1110" as="sourcePoint" />
            <mxPoint x="20" y="1060" as="targetPoint" />
          </mxGeometry>
        </mxCell>
      </root>
    </mxGraphModel>
  </diagram>
</mxfile>
